<?xml version="1.0" encoding="utf-8" standalone="no"?>
<!DOCTYPE svg PUBLIC "-//W3C//DTD SVG 1.1//EN"
  "http://www.w3.org/Graphics/SVG/1.1/DTD/svg11.dtd">
<svg xmlns:xlink="http://www.w3.org/1999/xlink" width="460.8pt" height="345.6pt" viewBox="0 0 460.8 345.6" xmlns="http://www.w3.org/2000/svg" version="1.1">
 <metadata>
  <rdf:RDF xmlns:dc="http://purl.org/dc/elements/1.1/" xmlns:cc="http://creativecommons.org/ns#" xmlns:rdf="http://www.w3.org/1999/02/22-rdf-syntax-ns#">
   <cc:Work>
    <dc:type rdf:resource="http://purl.org/dc/dcmitype/StillImage"/>
    <dc:date>2023-05-23T18:20:52.404820</dc:date>
    <dc:format>image/svg+xml</dc:format>
    <dc:creator>
     <cc:Agent>
      <dc:title>Matplotlib v3.7.1, https://matplotlib.org/</dc:title>
     </cc:Agent>
    </dc:creator>
   </cc:Work>
  </rdf:RDF>
 </metadata>
 <defs>
  <style type="text/css">*{stroke-linejoin: round; stroke-linecap: butt}</style>
 </defs>
 <g id="figure_1">
  <g id="patch_1">
   <path d="M 0 345.6 
L 460.8 345.6 
L 460.8 0 
L 0 0 
z
" style="fill: #ffffff"/>
  </g>
  <g id="axes_1">
   <g id="patch_2">
    <path d="M 57.6 307.584 
L 414.72 307.584 
L 414.72 41.472 
L 57.6 41.472 
z
" style="fill: #ffffff"/>
   </g>
   <g id="matplotlib.axis_1">
    <g id="xtick_1">
     <g id="line2d_1">
      <defs>
       <path id="m9b8fd68a0e" d="M 0 0 
L 0 3.5 
" style="stroke: #000000; stroke-width: 0.8"/>
      </defs>
      <g>
       <use xlink:href="#m9b8fd68a0e" x="73.832727" y="307.584" style="stroke: #000000; stroke-width: 0.8"/>
      </g>
     </g>
     <g id="text_1">
      <!-- 0.0 -->
      <g transform="translate(67.442884 321.524625) scale(0.1 -0.1)">
       <defs>
        <path id="LatinModernMath-Regular-30" d="M 2944 2048 
Q 2944 1114 2707 602 
Q 2362 -141 1594 -141 
Q 1306 -141 1014 6 
Q 723 154 538 506 
Q 250 1037 250 2048 
Q 250 2989 486 3501 
Q 819 4262 1600 4262 
Q 1766 4262 1939 4217 
Q 2112 4173 2333 4000 
Q 2554 3827 2688 3546 
Q 2944 3002 2944 2048 
z
M 2413 2125 
Q 2413 3014 2349 3373 
Q 2266 3789 2042 3955 
Q 1818 4122 1594 4122 
Q 1510 4122 1420 4096 
Q 1331 4070 1203 4000 
Q 1075 3930 976 3750 
Q 877 3571 832 3302 
Q 781 2957 781 2125 
Q 781 1158 851 774 
Q 928 358 1142 179 
Q 1357 0 1594 0 
Q 1850 0 2064 192 
Q 2278 384 2342 800 
Q 2413 1210 2413 2125 
z
" transform="scale(0.015625)"/>
        <path id="LatinModernMath-Regular-2e" d="M 1129 579 
Q 1229 480 1229 339 
Q 1229 198 1129 99 
Q 1030 0 889 0 
Q 749 0 649 99 
Q 550 198 550 339 
Q 550 480 649 579 
Q 749 678 889 678 
Q 1030 678 1129 579 
z
" transform="scale(0.015625)"/>
       </defs>
       <use xlink:href="#LatinModernMath-Regular-30"/>
       <use xlink:href="#LatinModernMath-Regular-2e" x="49.999985"/>
       <use xlink:href="#LatinModernMath-Regular-30" x="77.799973"/>
      </g>
     </g>
    </g>
    <g id="xtick_2">
     <g id="line2d_2">
      <g>
       <use xlink:href="#m9b8fd68a0e" x="114.414545" y="307.584" style="stroke: #000000; stroke-width: 0.8"/>
      </g>
     </g>
     <g id="text_2">
      <!-- 2.5 -->
      <g transform="translate(108.024702 321.524625) scale(0.1 -0.1)">
       <defs>
        <path id="LatinModernMath-Regular-32" d="M 2874 1114 
L 2694 0 
L 320 0 
Q 320 115 329 150 
Q 339 186 390 237 
L 1619 1606 
Q 2291 2362 2291 3021 
Q 2291 3450 2067 3757 
Q 1843 4064 1434 4064 
Q 1152 4064 915 3891 
Q 678 3718 570 3411 
Q 589 3418 653 3418 
Q 813 3418 902 3318 
Q 992 3219 992 3085 
Q 992 2912 880 2829 
Q 768 2746 659 2746 
Q 614 2746 556 2755 
Q 499 2765 409 2854 
Q 320 2944 320 3104 
Q 320 3552 659 3907 
Q 998 4262 1517 4262 
Q 2106 4262 2490 3913 
Q 2874 3565 2874 3021 
Q 2874 2829 2816 2656 
Q 2758 2483 2681 2348 
Q 2605 2214 2400 2000 
Q 2195 1786 2028 1632 
Q 1862 1478 1491 1152 
L 813 493 
L 1965 493 
Q 2528 493 2573 544 
Q 2637 634 2714 1114 
L 2874 1114 
z
" transform="scale(0.015625)"/>
        <path id="LatinModernMath-Regular-35" d="M 2874 1286 
Q 2874 685 2458 272 
Q 2042 -141 1478 -141 
Q 966 -141 643 224 
Q 320 589 320 1030 
Q 320 1222 422 1296 
Q 525 1370 634 1370 
Q 781 1370 867 1277 
Q 954 1184 954 1056 
Q 954 928 867 835 
Q 781 742 634 742 
Q 563 742 525 755 
Q 608 461 867 249 
Q 1126 38 1466 38 
Q 1894 38 2150 454 
Q 2304 723 2304 1331 
Q 2304 1869 2189 2138 
Q 2010 2547 1645 2547 
Q 1126 2547 819 2099 
Q 781 2042 736 2042 
Q 672 2042 659 2074 
Q 646 2106 646 2208 
L 646 4102 
Q 646 4256 710 4256 
Q 736 4256 787 4237 
Q 1190 4058 1638 4058 
Q 2099 4058 2509 4243 
L 2560 4262 
Q 2624 4262 2624 4192 
Q 2624 4166 2573 4092 
Q 2522 4019 2413 3923 
Q 2304 3827 2163 3737 
Q 2022 3648 1817 3587 
Q 1613 3526 1389 3526 
Q 1120 3526 845 3610 
L 845 2362 
Q 1178 2688 1658 2688 
Q 2170 2688 2522 2275 
Q 2874 1862 2874 1286 
z
" transform="scale(0.015625)"/>
       </defs>
       <use xlink:href="#LatinModernMath-Regular-32"/>
       <use xlink:href="#LatinModernMath-Regular-2e" x="49.999985"/>
       <use xlink:href="#LatinModernMath-Regular-35" x="77.799973"/>
      </g>
     </g>
    </g>
    <g id="xtick_3">
     <g id="line2d_3">
      <g>
       <use xlink:href="#m9b8fd68a0e" x="154.996364" y="307.584" style="stroke: #000000; stroke-width: 0.8"/>
      </g>
     </g>
     <g id="text_3">
      <!-- 5.0 -->
      <g transform="translate(148.60652 321.524625) scale(0.1 -0.1)">
       <use xlink:href="#LatinModernMath-Regular-35"/>
       <use xlink:href="#LatinModernMath-Regular-2e" x="49.999985"/>
       <use xlink:href="#LatinModernMath-Regular-30" x="77.799973"/>
      </g>
     </g>
    </g>
    <g id="xtick_4">
     <g id="line2d_4">
      <g>
       <use xlink:href="#m9b8fd68a0e" x="195.578182" y="307.584" style="stroke: #000000; stroke-width: 0.8"/>
      </g>
     </g>
     <g id="text_4">
      <!-- 7.5 -->
      <g transform="translate(189.188338 321.524625) scale(0.1 -0.1)">
       <defs>
        <path id="LatinModernMath-Regular-37" d="M 3104 4122 
Q 3104 3974 3046 3898 
L 2182 2682 
Q 1907 2298 1786 1587 
Q 1715 1114 1715 538 
L 1715 211 
Q 1715 -141 1420 -141 
Q 1126 -141 1126 211 
Q 1126 1434 1914 2618 
L 2630 3629 
L 1306 3629 
Q 723 3629 678 3590 
Q 614 3533 518 3008 
L 358 3008 
L 570 4326 
L 730 4326 
Q 749 4250 781 4214 
Q 813 4179 995 4150 
Q 1178 4122 1549 4122 
L 3104 4122 
z
" transform="scale(0.015625)"/>
       </defs>
       <use xlink:href="#LatinModernMath-Regular-37"/>
       <use xlink:href="#LatinModernMath-Regular-2e" x="49.999985"/>
       <use xlink:href="#LatinModernMath-Regular-35" x="77.799973"/>
      </g>
     </g>
    </g>
    <g id="xtick_5">
     <g id="line2d_5">
      <g>
       <use xlink:href="#m9b8fd68a0e" x="236.16" y="307.584" style="stroke: #000000; stroke-width: 0.8"/>
      </g>
     </g>
     <g id="text_5">
      <!-- 10.0 -->
      <g transform="translate(227.270156 321.524625) scale(0.1 -0.1)">
       <defs>
        <path id="LatinModernMath-Regular-31" d="M 2682 0 
Q 2458 19 1645 19 
Q 832 19 608 0 
L 608 198 
L 813 198 
Q 1216 198 1312 256 
Q 1408 314 1408 506 
L 1408 3821 
Q 1075 3654 570 3654 
L 570 3853 
Q 1338 3853 1734 4262 
Q 1843 4262 1862 4236 
Q 1882 4211 1882 4096 
L 1882 506 
Q 1882 314 1974 256 
Q 2067 198 2477 198 
L 2682 198 
L 2682 0 
z
" transform="scale(0.015625)"/>
       </defs>
       <use xlink:href="#LatinModernMath-Regular-31"/>
       <use xlink:href="#LatinModernMath-Regular-30" x="49.999985"/>
       <use xlink:href="#LatinModernMath-Regular-2e" x="99.999969"/>
       <use xlink:href="#LatinModernMath-Regular-30" x="127.799957"/>
      </g>
     </g>
    </g>
    <g id="xtick_6">
     <g id="line2d_6">
      <g>
       <use xlink:href="#m9b8fd68a0e" x="276.741818" y="307.584" style="stroke: #000000; stroke-width: 0.8"/>
      </g>
     </g>
     <g id="text_6">
      <!-- 12.5 -->
      <g transform="translate(267.851974 321.524625) scale(0.1 -0.1)">
       <use xlink:href="#LatinModernMath-Regular-31"/>
       <use xlink:href="#LatinModernMath-Regular-32" x="49.999985"/>
       <use xlink:href="#LatinModernMath-Regular-2e" x="99.999969"/>
       <use xlink:href="#LatinModernMath-Regular-35" x="127.799957"/>
      </g>
     </g>
    </g>
    <g id="xtick_7">
     <g id="line2d_7">
      <g>
       <use xlink:href="#m9b8fd68a0e" x="317.323636" y="307.584" style="stroke: #000000; stroke-width: 0.8"/>
      </g>
     </g>
     <g id="text_7">
      <!-- 15.0 -->
      <g transform="translate(308.433793 321.524625) scale(0.1 -0.1)">
       <use xlink:href="#LatinModernMath-Regular-31"/>
       <use xlink:href="#LatinModernMath-Regular-35" x="49.999985"/>
       <use xlink:href="#LatinModernMath-Regular-2e" x="99.999969"/>
       <use xlink:href="#LatinModernMath-Regular-30" x="127.799957"/>
      </g>
     </g>
    </g>
    <g id="xtick_8">
     <g id="line2d_8">
      <g>
       <use xlink:href="#m9b8fd68a0e" x="357.905455" y="307.584" style="stroke: #000000; stroke-width: 0.8"/>
      </g>
     </g>
     <g id="text_8">
      <!-- 17.5 -->
      <g transform="translate(349.015611 321.524625) scale(0.1 -0.1)">
       <use xlink:href="#LatinModernMath-Regular-31"/>
       <use xlink:href="#LatinModernMath-Regular-37" x="49.999985"/>
       <use xlink:href="#LatinModernMath-Regular-2e" x="99.999969"/>
       <use xlink:href="#LatinModernMath-Regular-35" x="127.799957"/>
      </g>
     </g>
    </g>
    <g id="xtick_9">
     <g id="line2d_9">
      <g>
       <use xlink:href="#m9b8fd68a0e" x="398.487273" y="307.584" style="stroke: #000000; stroke-width: 0.8"/>
      </g>
     </g>
     <g id="text_9">
      <!-- 20.0 -->
      <g transform="translate(389.597429 321.524625) scale(0.1 -0.1)">
       <use xlink:href="#LatinModernMath-Regular-32"/>
       <use xlink:href="#LatinModernMath-Regular-30" x="49.999985"/>
       <use xlink:href="#LatinModernMath-Regular-2e" x="99.999969"/>
       <use xlink:href="#LatinModernMath-Regular-30" x="127.799957"/>
      </g>
     </g>
    </g>
    <g id="text_10">
     <!-- Generation -->
     <g transform="translate(211.939687 334.405875) scale(0.1 -0.1)">
      <defs>
       <path id="LatinModernMath-Regular-47" d="M 4704 1549 
Q 4397 1549 4329 1504 
Q 4262 1459 4262 1267 
L 4262 154 
Q 4262 6 4205 6 
Q 4154 6 4006 150 
Q 3859 294 3795 403 
Q 3642 134 3309 -3 
Q 2976 -141 2598 -141 
Q 1677 -141 1017 537 
Q 358 1216 358 2189 
Q 358 3162 1020 3837 
Q 1683 4512 2586 4512 
Q 2810 4512 3002 4461 
Q 3194 4410 3347 4307 
Q 3501 4205 3581 4137 
Q 3661 4070 3770 3962 
L 4090 4435 
Q 4141 4512 4192 4512 
Q 4243 4512 4252 4483 
Q 4262 4454 4262 4358 
L 4262 2842 
Q 4262 2739 4249 2713 
Q 4237 2688 4160 2688 
Q 4096 2688 4083 2707 
Q 4070 2726 4058 2797 
Q 3962 3488 3574 3901 
Q 3187 4314 2662 4314 
Q 2509 4314 2339 4278 
Q 2170 4243 1920 4112 
Q 1670 3981 1481 3766 
Q 1293 3552 1155 3142 
Q 1018 2733 1018 2189 
Q 1018 1651 1155 1238 
Q 1293 826 1485 611 
Q 1677 397 1929 262 
Q 2182 128 2361 93 
Q 2541 58 2701 58 
Q 2810 58 2938 80 
Q 3066 102 3258 172 
Q 3450 243 3571 412 
Q 3693 582 3693 832 
L 3693 1242 
Q 3693 1434 3600 1491 
Q 3507 1549 3098 1549 
L 2893 1549 
L 2893 1747 
Q 3123 1728 3923 1728 
L 4704 1747 
L 4704 1549 
z
" transform="scale(0.015625)"/>
       <path id="LatinModernMath-Regular-65" d="M 2656 762 
Q 2656 704 2595 579 
Q 2534 454 2419 304 
Q 2304 154 2080 42 
Q 1856 -70 1587 -70 
Q 1024 -70 601 355 
Q 179 781 179 1408 
Q 179 2010 566 2438 
Q 954 2867 1510 2867 
Q 2074 2867 2365 2502 
Q 2656 2138 2656 1613 
Q 2656 1517 2630 1497 
Q 2605 1478 2496 1478 
L 710 1478 
Q 710 826 902 518 
Q 1171 90 1626 90 
Q 1690 90 1763 102 
Q 1837 115 1990 169 
Q 2144 224 2278 371 
Q 2413 518 2490 749 
Q 2509 838 2573 838 
Q 2656 838 2656 762 
z
M 2234 1613 
Q 2234 1747 2211 1897 
Q 2189 2048 2121 2256 
Q 2054 2464 1897 2595 
Q 1741 2726 1510 2726 
Q 1408 2726 1296 2681 
Q 1184 2637 1049 2531 
Q 915 2426 822 2186 
Q 730 1946 717 1613 
L 2234 1613 
z
" transform="scale(0.015625)"/>
       <path id="LatinModernMath-Regular-6e" d="M 3424 0 
L 2707 19 
L 1984 0 
L 1984 198 
Q 2323 198 2403 240 
Q 2483 282 2483 486 
L 2483 1978 
Q 2483 2304 2384 2496 
Q 2285 2688 2010 2688 
Q 1677 2688 1411 2409 
Q 1146 2131 1146 1664 
L 1146 486 
Q 1146 282 1226 240 
Q 1306 198 1645 198 
L 1645 0 
L 928 19 
L 205 0 
L 205 198 
Q 544 198 624 240 
Q 704 282 704 486 
L 704 2202 
Q 704 2438 621 2499 
Q 538 2560 205 2560 
L 205 2758 
L 1107 2829 
L 1107 2157 
Q 1408 2829 2054 2829 
Q 2534 2829 2726 2592 
Q 2867 2432 2896 2253 
Q 2925 2074 2925 1613 
L 2925 390 
Q 2931 256 3033 227 
Q 3136 198 3424 198 
L 3424 0 
z
" transform="scale(0.015625)"/>
       <path id="LatinModernMath-Regular-72" d="M 2330 2438 
Q 2330 2298 2243 2227 
Q 2157 2157 2054 2157 
Q 1939 2157 1859 2230 
Q 1779 2304 1779 2432 
Q 1779 2509 1814 2569 
Q 1850 2630 1878 2652 
Q 1907 2675 1926 2682 
Q 1914 2688 1856 2688 
Q 1504 2688 1302 2336 
Q 1101 1984 1101 1485 
L 1101 499 
Q 1101 314 1177 256 
Q 1254 198 1587 198 
L 1722 198 
L 1722 0 
Q 1466 19 909 19 
L 179 0 
L 179 198 
Q 518 198 598 240 
Q 678 282 678 486 
L 678 2202 
Q 678 2438 595 2499 
Q 512 2560 179 2560 
L 179 2758 
L 1069 2829 
L 1069 2125 
Q 1158 2400 1350 2614 
Q 1542 2829 1856 2829 
Q 2061 2829 2195 2713 
Q 2330 2598 2330 2438 
z
" transform="scale(0.015625)"/>
       <path id="LatinModernMath-Regular-61" d="M 3091 570 
Q 3091 230 2912 96 
Q 2733 -38 2566 -38 
Q 2355 -38 2220 118 
Q 2086 275 2067 486 
Q 1971 243 1750 86 
Q 1530 -70 1229 -70 
Q 998 -70 780 -12 
Q 563 45 384 205 
Q 205 365 205 608 
Q 205 1152 845 1440 
Q 1229 1626 2022 1670 
L 2022 1907 
Q 2022 2304 1814 2515 
Q 1606 2726 1344 2726 
Q 877 2726 653 2432 
Q 845 2426 912 2330 
Q 979 2234 979 2138 
Q 979 2010 899 1926 
Q 819 1843 685 1843 
Q 557 1843 473 1923 
Q 390 2003 390 2144 
Q 390 2458 672 2662 
Q 954 2867 1357 2867 
Q 1882 2867 2234 2515 
Q 2342 2406 2396 2265 
Q 2451 2125 2457 2032 
Q 2464 1939 2464 1760 
L 2464 480 
Q 2464 442 2477 381 
Q 2490 320 2547 240 
Q 2605 160 2701 160 
Q 2931 160 2931 570 
L 2931 928 
L 3091 928 
L 3091 570 
z
M 2022 896 
L 2022 1536 
Q 1312 1510 1005 1228 
Q 698 947 698 614 
Q 698 378 867 224 
Q 1037 70 1274 70 
Q 1542 70 1782 278 
Q 2022 486 2022 896 
z
" transform="scale(0.015625)"/>
       <path id="LatinModernMath-Regular-74" d="M 2125 794 
Q 2125 448 1965 189 
Q 1805 -70 1491 -70 
Q 1376 -70 1261 -41 
Q 1146 -13 998 64 
Q 851 141 758 329 
Q 666 518 666 794 
L 666 2560 
L 122 2560 
L 122 2701 
Q 416 2714 611 2922 
Q 806 3130 873 3386 
Q 941 3642 947 3936 
L 1107 3936 
L 1107 2758 
L 2022 2758 
L 2022 2560 
L 1107 2560 
L 1107 781 
Q 1107 90 1536 90 
Q 1722 90 1843 278 
Q 1965 467 1965 806 
L 1965 1158 
L 2125 1158 
L 2125 794 
z
" transform="scale(0.015625)"/>
       <path id="LatinModernMath-Regular-69" d="M 1581 0 
Q 928 19 915 19 
L 211 0 
L 211 198 
Q 550 198 630 240 
Q 710 282 710 486 
L 710 2208 
Q 710 2445 630 2502 
Q 550 2560 237 2560 
L 237 2758 
L 1133 2829 
L 1133 480 
Q 1133 288 1200 243 
Q 1267 198 1581 198 
L 1581 0 
z
M 1229 3866 
Q 1229 3738 1133 3632 
Q 1037 3526 883 3526 
Q 742 3526 643 3628 
Q 544 3731 544 3866 
Q 544 3994 640 4099 
Q 736 4205 890 4205 
Q 1030 4205 1129 4102 
Q 1229 4000 1229 3866 
z
" transform="scale(0.015625)"/>
       <path id="LatinModernMath-Regular-6f" d="M 3014 1370 
Q 3014 768 2595 349 
Q 2176 -70 1594 -70 
Q 1024 -70 601 346 
Q 179 762 179 1370 
Q 179 1978 592 2422 
Q 1005 2867 1600 2867 
Q 2182 2867 2598 2425 
Q 3014 1984 3014 1370 
z
M 2483 1421 
Q 2483 2035 2317 2310 
Q 2067 2726 1594 2726 
Q 1389 2726 1187 2617 
Q 986 2509 864 2298 
Q 710 2016 710 1421 
Q 710 800 870 518 
Q 1120 90 1600 90 
Q 1837 90 2035 218 
Q 2234 346 2342 563 
Q 2483 845 2483 1421 
z
" transform="scale(0.015625)"/>
      </defs>
      <use xlink:href="#LatinModernMath-Regular-47"/>
      <use xlink:href="#LatinModernMath-Regular-65" x="78.499985"/>
      <use xlink:href="#LatinModernMath-Regular-6e" x="122.899979"/>
      <use xlink:href="#LatinModernMath-Regular-65" x="178.499969"/>
      <use xlink:href="#LatinModernMath-Regular-72" x="222.899963"/>
      <use xlink:href="#LatinModernMath-Regular-61" x="262.09996"/>
      <use xlink:href="#LatinModernMath-Regular-74" x="312.099945"/>
      <use xlink:href="#LatinModernMath-Regular-69" x="350.999939"/>
      <use xlink:href="#LatinModernMath-Regular-6f" x="378.799927"/>
      <use xlink:href="#LatinModernMath-Regular-6e" x="428.799911"/>
     </g>
    </g>
   </g>
   <g id="matplotlib.axis_2">
    <g id="ytick_1">
     <g id="line2d_10">
      <defs>
       <path id="m2e03a14899" d="M 0 0 
L -3.5 0 
" style="stroke: #000000; stroke-width: 0.8"/>
      </defs>
      <g>
       <use xlink:href="#m2e03a14899" x="57.6" y="281.673889" style="stroke: #000000; stroke-width: 0.8"/>
      </g>
     </g>
     <g id="text_11">
      <!-- 0.045 -->
      <g style="fill: #0000ff" transform="translate(27.820312 285.144202) scale(0.1 -0.1)">
       <defs>
        <path id="LatinModernMath-Regular-34" d="M 3014 1056 
L 2374 1056 
L 2374 499 
Q 2374 314 2451 256 
Q 2528 198 2861 198 
L 2995 198 
L 2995 0 
Q 2733 19 2125 19 
Q 1523 19 1261 0 
L 1261 198 
L 1395 198 
Q 1728 198 1805 256 
Q 1882 314 1882 499 
L 1882 1056 
L 179 1056 
L 179 1254 
L 2144 4256 
Q 2195 4333 2272 4333 
Q 2310 4333 2329 4326 
Q 2349 4320 2361 4294 
Q 2374 4269 2374 4246 
Q 2374 4224 2374 4166 
L 2374 1254 
L 3014 1254 
L 3014 1056 
z
M 1920 1254 
L 1920 3642 
L 358 1254 
L 1920 1254 
z
" transform="scale(0.015625)"/>
       </defs>
       <use xlink:href="#LatinModernMath-Regular-30"/>
       <use xlink:href="#LatinModernMath-Regular-2e" x="49.999985"/>
       <use xlink:href="#LatinModernMath-Regular-30" x="77.799973"/>
       <use xlink:href="#LatinModernMath-Regular-34" x="127.799957"/>
       <use xlink:href="#LatinModernMath-Regular-35" x="177.799942"/>
      </g>
     </g>
    </g>
    <g id="ytick_2">
     <g id="line2d_11">
      <g>
       <use xlink:href="#m2e03a14899" x="57.6" y="247.854174" style="stroke: #000000; stroke-width: 0.8"/>
      </g>
     </g>
     <g id="text_12">
      <!-- 0.050 -->
      <g style="fill: #0000ff" transform="translate(27.820312 251.324487) scale(0.1 -0.1)">
       <use xlink:href="#LatinModernMath-Regular-30"/>
       <use xlink:href="#LatinModernMath-Regular-2e" x="49.999985"/>
       <use xlink:href="#LatinModernMath-Regular-30" x="77.799973"/>
       <use xlink:href="#LatinModernMath-Regular-35" x="127.799957"/>
       <use xlink:href="#LatinModernMath-Regular-30" x="177.799942"/>
      </g>
     </g>
    </g>
    <g id="ytick_3">
     <g id="line2d_12">
      <g>
       <use xlink:href="#m2e03a14899" x="57.6" y="214.034459" style="stroke: #000000; stroke-width: 0.8"/>
      </g>
     </g>
     <g id="text_13">
      <!-- 0.055 -->
      <g style="fill: #0000ff" transform="translate(27.820312 217.504772) scale(0.1 -0.1)">
       <use xlink:href="#LatinModernMath-Regular-30"/>
       <use xlink:href="#LatinModernMath-Regular-2e" x="49.999985"/>
       <use xlink:href="#LatinModernMath-Regular-30" x="77.799973"/>
       <use xlink:href="#LatinModernMath-Regular-35" x="127.799957"/>
       <use xlink:href="#LatinModernMath-Regular-35" x="177.799942"/>
      </g>
     </g>
    </g>
    <g id="ytick_4">
     <g id="line2d_13">
      <g>
       <use xlink:href="#m2e03a14899" x="57.6" y="180.214744" style="stroke: #000000; stroke-width: 0.8"/>
      </g>
     </g>
     <g id="text_14">
      <!-- 0.060 -->
      <g style="fill: #0000ff" transform="translate(27.820312 183.685057) scale(0.1 -0.1)">
       <defs>
        <path id="LatinModernMath-Regular-36" d="M 2925 1306 
Q 2925 685 2537 272 
Q 2150 -141 1606 -141 
Q 1363 -141 1142 -38 
Q 922 64 717 294 
Q 512 525 390 969 
Q 269 1414 269 2022 
Q 269 3027 781 3644 
Q 1293 4262 1952 4262 
Q 2336 4262 2550 4067 
Q 2765 3872 2765 3571 
Q 2765 3405 2669 3334 
Q 2573 3264 2470 3264 
Q 2355 3264 2265 3341 
Q 2176 3418 2176 3558 
Q 2176 3846 2528 3846 
Q 2362 4102 1965 4102 
Q 1843 4102 1718 4067 
Q 1594 4032 1430 3913 
Q 1267 3795 1142 3606 
Q 1018 3418 931 3066 
Q 845 2714 845 2253 
L 845 2099 
Q 1107 2733 1644 2733 
Q 2182 2733 2553 2323 
Q 2925 1914 2925 1306 
z
M 2349 1312 
Q 2349 1952 2234 2189 
Q 2035 2586 1638 2586 
Q 1370 2586 1184 2400 
Q 998 2214 928 1968 
Q 858 1722 858 1446 
Q 858 819 973 518 
Q 992 467 1033 400 
Q 1075 333 1148 243 
Q 1222 154 1344 96 
Q 1466 38 1606 38 
Q 2035 38 2240 454 
Q 2349 685 2349 1312 
z
" transform="scale(0.015625)"/>
       </defs>
       <use xlink:href="#LatinModernMath-Regular-30"/>
       <use xlink:href="#LatinModernMath-Regular-2e" x="49.999985"/>
       <use xlink:href="#LatinModernMath-Regular-30" x="77.799973"/>
       <use xlink:href="#LatinModernMath-Regular-36" x="127.799957"/>
       <use xlink:href="#LatinModernMath-Regular-30" x="177.799942"/>
      </g>
     </g>
    </g>
    <g id="ytick_5">
     <g id="line2d_14">
      <g>
       <use xlink:href="#m2e03a14899" x="57.6" y="146.39503" style="stroke: #000000; stroke-width: 0.8"/>
      </g>
     </g>
     <g id="text_15">
      <!-- 0.065 -->
      <g style="fill: #0000ff" transform="translate(27.820312 149.865342) scale(0.1 -0.1)">
       <use xlink:href="#LatinModernMath-Regular-30"/>
       <use xlink:href="#LatinModernMath-Regular-2e" x="49.999985"/>
       <use xlink:href="#LatinModernMath-Regular-30" x="77.799973"/>
       <use xlink:href="#LatinModernMath-Regular-36" x="127.799957"/>
       <use xlink:href="#LatinModernMath-Regular-35" x="177.799942"/>
      </g>
     </g>
    </g>
    <g id="ytick_6">
     <g id="line2d_15">
      <g>
       <use xlink:href="#m2e03a14899" x="57.6" y="112.575315" style="stroke: #000000; stroke-width: 0.8"/>
      </g>
     </g>
     <g id="text_16">
      <!-- 0.070 -->
      <g style="fill: #0000ff" transform="translate(27.820312 116.045627) scale(0.1 -0.1)">
       <use xlink:href="#LatinModernMath-Regular-30"/>
       <use xlink:href="#LatinModernMath-Regular-2e" x="49.999985"/>
       <use xlink:href="#LatinModernMath-Regular-30" x="77.799973"/>
       <use xlink:href="#LatinModernMath-Regular-37" x="127.799957"/>
       <use xlink:href="#LatinModernMath-Regular-30" x="177.799942"/>
      </g>
     </g>
    </g>
    <g id="ytick_7">
     <g id="line2d_16">
      <g>
       <use xlink:href="#m2e03a14899" x="57.6" y="78.7556" style="stroke: #000000; stroke-width: 0.8"/>
      </g>
     </g>
     <g id="text_17">
      <!-- 0.075 -->
      <g style="fill: #0000ff" transform="translate(27.820312 82.225912) scale(0.1 -0.1)">
       <use xlink:href="#LatinModernMath-Regular-30"/>
       <use xlink:href="#LatinModernMath-Regular-2e" x="49.999985"/>
       <use xlink:href="#LatinModernMath-Regular-30" x="77.799973"/>
       <use xlink:href="#LatinModernMath-Regular-37" x="127.799957"/>
       <use xlink:href="#LatinModernMath-Regular-35" x="177.799942"/>
      </g>
     </g>
    </g>
    <g id="ytick_8">
     <g id="line2d_17">
      <g>
       <use xlink:href="#m2e03a14899" x="57.6" y="44.935885" style="stroke: #000000; stroke-width: 0.8"/>
      </g>
     </g>
     <g id="text_18">
      <!-- 0.080 -->
      <g style="fill: #0000ff" transform="translate(27.820312 48.406197) scale(0.1 -0.1)">
       <defs>
        <path id="LatinModernMath-Regular-38" d="M 2925 1075 
Q 2925 563 2531 211 
Q 2138 -141 1594 -141 
Q 1062 -141 665 169 
Q 269 480 269 966 
Q 269 1683 1190 2144 
Q 794 2413 723 2490 
Q 442 2803 442 3194 
Q 442 3642 781 3952 
Q 1120 4262 1600 4262 
Q 2061 4262 2406 3996 
Q 2752 3731 2752 3309 
Q 2752 2714 1978 2317 
Q 2490 1997 2611 1862 
Q 2925 1517 2925 1075 
z
M 2470 3309 
Q 2470 3648 2211 3875 
Q 1952 4102 1594 4102 
Q 1242 4102 982 3916 
Q 723 3731 723 3443 
Q 723 3136 1043 2925 
L 1837 2413 
Q 2470 2784 2470 3309 
z
M 2605 845 
Q 2605 979 2560 1094 
Q 2515 1210 2425 1302 
Q 2336 1395 2281 1436 
Q 2227 1478 2125 1549 
L 1338 2048 
Q 589 1632 589 966 
Q 589 570 886 304 
Q 1184 38 1600 38 
Q 2003 38 2304 268 
Q 2605 499 2605 845 
z
" transform="scale(0.015625)"/>
       </defs>
       <use xlink:href="#LatinModernMath-Regular-30"/>
       <use xlink:href="#LatinModernMath-Regular-2e" x="49.999985"/>
       <use xlink:href="#LatinModernMath-Regular-30" x="77.799973"/>
       <use xlink:href="#LatinModernMath-Regular-38" x="127.799957"/>
       <use xlink:href="#LatinModernMath-Regular-30" x="177.799942"/>
      </g>
     </g>
    </g>
   </g>
   <g id="line2d_18">
    <path d="M 73.832727 257.744408 
L 90.065455 285.577266 
L 106.298182 285.577266 
L 122.530909 285.577266 
L 138.763636 285.577266 
L 154.996364 285.590794 
L 171.229091 285.590794 
L 187.461818 285.590794 
L 203.694545 285.782066 
L 219.927273 285.782066 
L 236.16 285.782066 
L 252.392727 285.782066 
L 268.625455 285.782066 
L 284.858182 285.782066 
L 301.090909 292.307437 
L 317.323636 292.307437 
L 333.556364 292.314201 
L 349.789091 292.314201 
L 366.021818 292.314201 
L 382.254545 295.488 
L 398.487273 295.488 
" clip-path="url(#p433fd51d45)" style="fill: none; stroke: #0000ff; stroke-width: 1.5; stroke-linecap: square"/>
   </g>
   <g id="line2d_19">
    <path d="M 122.530909 76.514547 
L 171.229091 76.528075 
L 219.927273 82.332257 
L 268.625455 82.332257 
L 317.323636 82.318729 
L 366.021818 76.446908 
L 398.487273 53.568 
" clip-path="url(#p433fd51d45)" style="fill: none; stroke-dasharray: 5.55,2.4; stroke-dashoffset: 0; stroke: #0000ff; stroke-width: 1.5"/>
   </g>
   <g id="patch_3">
    <path d="M 57.6 307.584 
L 57.6 41.472 
" style="fill: none; stroke: #000000; stroke-width: 0.8; stroke-linejoin: miter; stroke-linecap: square"/>
   </g>
   <g id="patch_4">
    <path d="M 414.72 307.584 
L 414.72 41.472 
" style="fill: none; stroke: #000000; stroke-width: 0.8; stroke-linejoin: miter; stroke-linecap: square"/>
   </g>
   <g id="patch_5">
    <path d="M 57.6 307.584 
L 414.72 307.584 
" style="fill: none; stroke: #000000; stroke-width: 0.8; stroke-linejoin: miter; stroke-linecap: square"/>
   </g>
   <g id="patch_6">
    <path d="M 57.6 41.472 
L 414.72 41.472 
" style="fill: none; stroke: #000000; stroke-width: 0.8; stroke-linejoin: miter; stroke-linecap: square"/>
   </g>
   <g id="legend_1">
    <g id="patch_7">
     <path d="M 304.809063 197.078 
L 407.72 197.078 
Q 409.72 197.078 409.72 195.078 
L 409.72 153.978 
Q 409.72 151.978 407.72 151.978 
L 304.809063 151.978 
Q 302.809063 151.978 302.809063 153.978 
L 302.809063 195.078 
Q 302.809063 197.078 304.809063 197.078 
z
" style="fill: #ffffff; opacity: 0.8; stroke: #cccccc; stroke-linejoin: miter"/>
    </g>
    <g id="line2d_20">
     <path d="M 306.809063 159.478 
L 316.809063 159.478 
L 326.809063 159.478 
" style="fill: none; stroke: #0000ff; stroke-width: 1.5; stroke-linecap: square"/>
    </g>
    <g id="text_19">
     <!-- Min Fitness -->
     <g transform="translate(334.809063 162.978) scale(0.1 -0.1)">
      <defs>
       <path id="LatinModernMath-Regular-4d" d="M 5626 0 
Q 5389 19 4710 19 
Q 4026 19 3789 0 
L 3789 198 
L 3942 198 
Q 4288 198 4368 256 
Q 4448 314 4448 499 
L 4448 4173 
L 4442 4173 
L 2867 122 
Q 2822 0 2752 0 
Q 2675 0 2624 141 
L 1082 4122 
L 1075 4122 
L 1075 672 
Q 1075 576 1088 518 
Q 1101 461 1155 374 
Q 1210 288 1357 243 
Q 1504 198 1734 198 
L 1734 0 
L 986 19 
L 237 0 
L 237 198 
Q 467 198 614 243 
Q 762 288 816 374 
Q 870 461 883 518 
Q 896 576 896 672 
L 896 3872 
Q 896 4058 816 4115 
Q 736 4173 390 4173 
L 237 4173 
L 237 4371 
L 1318 4371 
Q 1434 4371 1466 4352 
Q 1498 4333 1542 4230 
L 2931 646 
L 4333 4250 
Q 4365 4339 4393 4355 
Q 4422 4371 4544 4371 
L 5626 4371 
L 5626 4173 
L 5472 4173 
Q 5126 4173 5046 4115 
Q 4966 4058 4966 3872 
L 4966 499 
Q 4966 314 5046 256 
Q 5126 198 5472 198 
L 5626 198 
L 5626 0 
z
" transform="scale(0.015625)"/>
       <path id="LatinModernMath-Regular-20" transform="scale(0.015625)"/>
       <path id="LatinModernMath-Regular-46" d="M 3904 2912 
L 3744 2912 
Q 3699 3277 3641 3485 
Q 3584 3693 3453 3859 
Q 3322 4026 3101 4090 
Q 2880 4154 2522 4154 
L 1754 4154 
Q 1536 4154 1488 4109 
Q 1440 4064 1440 3898 
L 1440 2278 
L 1990 2278 
Q 2426 2278 2547 2435 
Q 2669 2592 2669 3027 
L 2829 3027 
L 2829 1331 
L 2669 1331 
Q 2669 1773 2547 1926 
Q 2426 2080 1990 2080 
L 1440 2080 
L 1440 506 
Q 1440 371 1462 320 
Q 1485 269 1619 233 
Q 1754 198 2048 198 
L 2259 198 
L 2259 0 
Q 2029 19 1184 19 
Q 435 19 211 0 
L 211 198 
L 365 198 
Q 710 198 790 256 
Q 870 314 870 499 
L 870 3853 
Q 870 4038 790 4096 
Q 710 4154 365 4154 
L 211 4154 
L 211 4352 
L 3725 4352 
L 3904 2912 
z
" transform="scale(0.015625)"/>
       <path id="LatinModernMath-Regular-73" d="M 2304 819 
Q 2304 442 2048 186 
Q 1792 -70 1274 -70 
Q 858 -70 570 205 
Q 531 166 502 134 
Q 474 102 464 89 
Q 454 77 451 70 
Q 448 64 442 58 
Q 314 -70 282 -70 
Q 230 -70 220 -41 
Q 211 -13 211 83 
L 211 928 
Q 211 998 214 1024 
Q 218 1050 237 1069 
Q 256 1088 294 1088 
Q 339 1088 355 1069 
Q 371 1050 384 979 
Q 480 538 688 304 
Q 896 70 1274 70 
Q 1632 70 1814 230 
Q 1997 390 1997 653 
Q 1997 1120 1331 1242 
Q 947 1318 787 1369 
Q 627 1421 486 1536 
Q 211 1760 211 2080 
Q 211 2400 454 2633 
Q 698 2867 1235 2867 
Q 1594 2867 1837 2688 
Q 1907 2746 1946 2790 
Q 2029 2867 2074 2867 
Q 2125 2867 2134 2835 
Q 2144 2803 2144 2714 
L 2144 2067 
Q 2144 1997 2141 1971 
Q 2138 1946 2118 1930 
Q 2099 1914 2061 1914 
Q 1990 1914 1984 1971 
Q 1933 2746 1235 2746 
Q 858 2746 688 2602 
Q 518 2458 518 2259 
Q 518 2150 569 2067 
Q 621 1984 688 1936 
Q 755 1888 880 1843 
Q 1005 1798 1081 1782 
Q 1158 1766 1306 1734 
Q 1818 1638 2035 1427 
Q 2304 1158 2304 819 
z
" transform="scale(0.015625)"/>
      </defs>
      <use xlink:href="#LatinModernMath-Regular-4d"/>
      <use xlink:href="#LatinModernMath-Regular-69" x="91.699982"/>
      <use xlink:href="#LatinModernMath-Regular-6e" x="119.499969"/>
      <use xlink:href="#LatinModernMath-Regular-20" x="175.09996"/>
      <use xlink:href="#LatinModernMath-Regular-46" x="208.299957"/>
      <use xlink:href="#LatinModernMath-Regular-69" x="273.599945"/>
      <use xlink:href="#LatinModernMath-Regular-74" x="301.399933"/>
      <use xlink:href="#LatinModernMath-Regular-6e" x="340.299927"/>
      <use xlink:href="#LatinModernMath-Regular-65" x="395.899918"/>
      <use xlink:href="#LatinModernMath-Regular-73" x="440.299911"/>
      <use xlink:href="#LatinModernMath-Regular-73" x="479.699905"/>
     </g>
    </g>
    <g id="line2d_21">
     <path d="M 306.809063 173.578 
L 316.809063 173.578 
L 326.809063 173.578 
" style="fill: none; stroke: #ff0000; stroke-width: 1.5; stroke-linecap: square"/>
    </g>
    <g id="text_20">
     <!-- Average Fitness -->
     <g transform="translate(334.809063 177.078) scale(0.1 -0.1)">
      <defs>
       <path id="LatinModernMath-Regular-41" d="M 4589 0 
L 3750 19 
Q 3059 19 2829 0 
L 2829 198 
Q 3360 198 3360 390 
Q 3360 403 3341 480 
L 3002 1459 
L 1421 1459 
L 1126 621 
Q 1114 595 1114 525 
Q 1114 390 1238 294 
Q 1363 198 1594 198 
L 1594 0 
L 858 19 
L 205 0 
L 205 198 
Q 774 211 922 627 
L 2246 4454 
Q 2272 4531 2301 4556 
Q 2330 4582 2400 4582 
Q 2438 4582 2460 4576 
Q 2483 4570 2499 4547 
Q 2515 4525 2521 4512 
Q 2528 4499 2547 4454 
L 3930 454 
Q 3981 294 4083 246 
Q 4186 198 4474 198 
L 4589 198 
L 4589 0 
z
M 2931 1658 
L 2208 3738 
L 1491 1658 
L 2931 1658 
z
" transform="scale(0.015625)"/>
       <path id="LatinModernMath-Regular-76" d="M 3251 2560 
Q 3059 2560 2924 2473 
Q 2790 2387 2748 2313 
Q 2707 2240 2662 2131 
L 1824 51 
Q 1773 -70 1690 -70 
Q 1632 -70 1609 -48 
Q 1587 -26 1555 51 
L 634 2323 
Q 570 2483 490 2521 
Q 410 2560 122 2560 
L 122 2758 
Q 410 2739 742 2739 
L 1440 2758 
L 1440 2560 
Q 1075 2560 1075 2394 
Q 1075 2368 1114 2285 
L 1830 499 
L 2483 2131 
Q 2522 2240 2522 2285 
Q 2522 2394 2448 2474 
Q 2374 2554 2214 2560 
L 2214 2758 
L 2771 2739 
Q 3034 2739 3251 2758 
L 3251 2560 
z
" transform="scale(0.015625)"/>
       <path id="LatinModernMath-Regular-67" d="M 3104 2586 
Q 3104 2490 3043 2442 
Q 2982 2394 2918 2394 
Q 2842 2394 2787 2445 
Q 2733 2496 2733 2579 
Q 2733 2714 2835 2752 
L 2771 2758 
Q 2458 2758 2195 2509 
Q 2458 2266 2458 1888 
Q 2458 1510 2157 1232 
Q 1856 954 1421 954 
Q 1062 954 787 1152 
Q 678 1024 678 851 
Q 678 691 774 566 
Q 870 442 1018 422 
Q 1062 416 1498 416 
Q 1754 416 1894 409 
Q 2035 403 2236 361 
Q 2438 320 2598 237 
Q 3014 6 3014 -493 
Q 3014 -858 2595 -1088 
Q 2176 -1318 1594 -1318 
Q 1005 -1318 592 -1084 
Q 179 -851 179 -506 
Q 179 -301 336 -121 
Q 493 58 768 134 
Q 486 314 486 704 
Q 486 1005 685 1235 
Q 384 1485 384 1894 
Q 384 2272 685 2550 
Q 986 2829 1421 2829 
Q 1805 2829 2099 2598 
Q 2406 2899 2778 2899 
Q 2944 2899 3024 2796 
Q 3104 2694 3104 2586 
z
M 1978 1894 
Q 1978 2682 1421 2682 
Q 1139 2682 966 2426 
Q 864 2253 864 1888 
Q 864 1101 1421 1101 
Q 1702 1101 1875 1357 
Q 1978 1530 1978 1894 
z
M 2682 -506 
Q 2682 -314 2573 -192 
Q 2464 -70 2240 -22 
Q 2016 26 1859 35 
Q 1702 45 1414 45 
L 1037 45 
Q 819 32 665 -128 
Q 512 -288 512 -506 
Q 512 -768 822 -969 
Q 1133 -1171 1600 -1171 
Q 2061 -1171 2371 -972 
Q 2682 -774 2682 -506 
z
" transform="scale(0.015625)"/>
      </defs>
      <use xlink:href="#LatinModernMath-Regular-41"/>
      <use xlink:href="#LatinModernMath-Regular-76" x="74.999985"/>
      <use xlink:href="#LatinModernMath-Regular-65" x="127.799973"/>
      <use xlink:href="#LatinModernMath-Regular-72" x="172.199966"/>
      <use xlink:href="#LatinModernMath-Regular-61" x="211.399963"/>
      <use xlink:href="#LatinModernMath-Regular-67" x="261.399948"/>
      <use xlink:href="#LatinModernMath-Regular-65" x="311.399933"/>
      <use xlink:href="#LatinModernMath-Regular-20" x="355.799927"/>
      <use xlink:href="#LatinModernMath-Regular-46" x="388.999924"/>
      <use xlink:href="#LatinModernMath-Regular-69" x="454.299911"/>
      <use xlink:href="#LatinModernMath-Regular-74" x="482.099899"/>
      <use xlink:href="#LatinModernMath-Regular-6e" x="520.999893"/>
      <use xlink:href="#LatinModernMath-Regular-65" x="576.599884"/>
      <use xlink:href="#LatinModernMath-Regular-73" x="620.999878"/>
      <use xlink:href="#LatinModernMath-Regular-73" x="660.399872"/>
     </g>
    </g>
    <g id="line2d_22">
     <path d="M 306.809063 187.637375 
L 316.809063 187.637375 
L 326.809063 187.637375 
" style="fill: none; stroke-dasharray: 5.55,2.4; stroke-dashoffset: 0; stroke: #0000ff; stroke-width: 1.5"/>
    </g>
    <g id="text_21">
     <!-- Validation score -->
     <g transform="translate(334.809063 191.137375) scale(0.1 -0.1)">
      <defs>
       <path id="LatinModernMath-Regular-56" d="M 4672 4173 
Q 4134 4166 3974 3744 
L 2547 -19 
Q 2522 -96 2496 -118 
Q 2470 -141 2394 -141 
Q 2330 -141 2298 -115 
Q 2266 -90 2234 0 
L 749 3930 
Q 685 4102 573 4137 
Q 461 4173 122 4173 
L 122 4371 
L 934 4352 
Q 1619 4352 1850 4371 
L 1850 4173 
Q 1325 4173 1325 3987 
Q 1325 3962 1363 3872 
L 2586 640 
L 3757 3725 
Q 3789 3821 3789 3853 
Q 3789 3981 3670 4073 
Q 3552 4166 3322 4173 
L 3322 4371 
L 4051 4352 
Q 4378 4352 4672 4371 
L 4672 4173 
z
" transform="scale(0.015625)"/>
       <path id="LatinModernMath-Regular-6c" d="M 1632 0 
L 922 19 
L 211 0 
L 211 198 
Q 550 198 630 240 
Q 710 282 710 486 
L 710 3814 
Q 710 4051 627 4112 
Q 544 4173 211 4173 
L 211 4371 
L 1133 4442 
L 1133 486 
Q 1133 282 1213 240 
Q 1293 198 1632 198 
L 1632 0 
z
" transform="scale(0.015625)"/>
       <path id="LatinModernMath-Regular-64" d="M 3373 0 
L 2432 -70 
L 2432 352 
Q 2099 -70 1574 -70 
Q 1024 -70 621 352 
Q 218 774 218 1376 
Q 218 1984 643 2406 
Q 1069 2829 1645 2829 
Q 2131 2829 2451 2432 
L 2451 3814 
Q 2451 4051 2368 4112 
Q 2285 4173 1952 4173 
L 1952 4371 
L 2874 4442 
L 2874 557 
Q 2874 320 2957 259 
Q 3040 198 3373 198 
L 3373 0 
z
M 2432 755 
L 2432 2067 
Q 2432 2195 2362 2304 
Q 2099 2688 1670 2688 
Q 1222 2688 947 2278 
Q 749 1971 749 1370 
Q 749 774 934 480 
Q 1190 70 1606 70 
Q 2080 70 2362 518 
Q 2432 627 2432 755 
z
" transform="scale(0.015625)"/>
       <path id="LatinModernMath-Regular-63" d="M 2656 762 
Q 2656 730 2630 650 
Q 2605 570 2528 442 
Q 2451 314 2339 202 
Q 2227 90 2032 10 
Q 1837 -70 1594 -70 
Q 1030 -70 624 352 
Q 218 774 218 1382 
Q 218 1990 618 2428 
Q 1018 2867 1606 2867 
Q 1997 2867 2291 2681 
Q 2586 2496 2586 2182 
Q 2586 2042 2502 1962 
Q 2419 1882 2291 1882 
Q 2157 1882 2077 1965 
Q 1997 2048 1997 2176 
Q 1997 2234 2016 2288 
Q 2035 2342 2105 2403 
Q 2176 2464 2298 2470 
Q 2067 2707 1613 2707 
Q 1286 2707 1017 2400 
Q 749 2093 749 1395 
Q 749 1030 838 761 
Q 928 493 1075 355 
Q 1222 218 1366 154 
Q 1510 90 1651 90 
Q 2278 90 2490 762 
Q 2509 826 2573 826 
Q 2656 826 2656 762 
z
" transform="scale(0.015625)"/>
      </defs>
      <use xlink:href="#LatinModernMath-Regular-56"/>
      <use xlink:href="#LatinModernMath-Regular-61" x="74.999985"/>
      <use xlink:href="#LatinModernMath-Regular-6c" x="124.999969"/>
      <use xlink:href="#LatinModernMath-Regular-69" x="152.799957"/>
      <use xlink:href="#LatinModernMath-Regular-64" x="180.599945"/>
      <use xlink:href="#LatinModernMath-Regular-61" x="236.199936"/>
      <use xlink:href="#LatinModernMath-Regular-74" x="286.199921"/>
      <use xlink:href="#LatinModernMath-Regular-69" x="325.099915"/>
      <use xlink:href="#LatinModernMath-Regular-6f" x="352.899902"/>
      <use xlink:href="#LatinModernMath-Regular-6e" x="402.899887"/>
      <use xlink:href="#LatinModernMath-Regular-20" x="458.499878"/>
      <use xlink:href="#LatinModernMath-Regular-73" x="491.699875"/>
      <use xlink:href="#LatinModernMath-Regular-63" x="531.099869"/>
      <use xlink:href="#LatinModernMath-Regular-6f" x="575.499863"/>
      <use xlink:href="#LatinModernMath-Regular-72" x="625.499847"/>
      <use xlink:href="#LatinModernMath-Regular-65" x="664.699844"/>
     </g>
    </g>
   </g>
  </g>
  <g id="axes_2">
   <g id="matplotlib.axis_3">
    <g id="ytick_9">
     <g id="line2d_23">
      <defs>
       <path id="m6ba6728b54" d="M 0 0 
L 3.5 0 
" style="stroke: #000000; stroke-width: 0.8"/>
      </defs>
      <g>
       <use xlink:href="#m6ba6728b54" x="414.72" y="275.451287" style="stroke: #000000; stroke-width: 0.8"/>
      </g>
     </g>
     <g id="text_22">
      <!-- 0.40 -->
      <g style="fill: #ff0000" transform="translate(421.72 278.921599) scale(0.1 -0.1)">
       <use xlink:href="#LatinModernMath-Regular-30"/>
       <use xlink:href="#LatinModernMath-Regular-2e" x="49.999985"/>
       <use xlink:href="#LatinModernMath-Regular-34" x="77.799973"/>
       <use xlink:href="#LatinModernMath-Regular-30" x="127.799957"/>
      </g>
     </g>
    </g>
    <g id="ytick_10">
     <g id="line2d_24">
      <g>
       <use xlink:href="#m6ba6728b54" x="414.72" y="220.964154" style="stroke: #000000; stroke-width: 0.8"/>
      </g>
     </g>
     <g id="text_23">
      <!-- 0.45 -->
      <g style="fill: #ff0000" transform="translate(421.72 224.434466) scale(0.1 -0.1)">
       <use xlink:href="#LatinModernMath-Regular-30"/>
       <use xlink:href="#LatinModernMath-Regular-2e" x="49.999985"/>
       <use xlink:href="#LatinModernMath-Regular-34" x="77.799973"/>
       <use xlink:href="#LatinModernMath-Regular-35" x="127.799957"/>
      </g>
     </g>
    </g>
    <g id="ytick_11">
     <g id="line2d_25">
      <g>
       <use xlink:href="#m6ba6728b54" x="414.72" y="166.477021" style="stroke: #000000; stroke-width: 0.8"/>
      </g>
     </g>
     <g id="text_24">
      <!-- 0.50 -->
      <g style="fill: #ff0000" transform="translate(421.72 169.947334) scale(0.1 -0.1)">
       <use xlink:href="#LatinModernMath-Regular-30"/>
       <use xlink:href="#LatinModernMath-Regular-2e" x="49.999985"/>
       <use xlink:href="#LatinModernMath-Regular-35" x="77.799973"/>
       <use xlink:href="#LatinModernMath-Regular-30" x="127.799957"/>
      </g>
     </g>
    </g>
    <g id="ytick_12">
     <g id="line2d_26">
      <g>
       <use xlink:href="#m6ba6728b54" x="414.72" y="111.989888" style="stroke: #000000; stroke-width: 0.8"/>
      </g>
     </g>
     <g id="text_25">
      <!-- 0.55 -->
      <g style="fill: #ff0000" transform="translate(421.72 115.460201) scale(0.1 -0.1)">
       <use xlink:href="#LatinModernMath-Regular-30"/>
       <use xlink:href="#LatinModernMath-Regular-2e" x="49.999985"/>
       <use xlink:href="#LatinModernMath-Regular-35" x="77.799973"/>
       <use xlink:href="#LatinModernMath-Regular-35" x="127.799957"/>
      </g>
     </g>
    </g>
    <g id="ytick_13">
     <g id="line2d_27">
      <g>
       <use xlink:href="#m6ba6728b54" x="414.72" y="57.502755" style="stroke: #000000; stroke-width: 0.8"/>
      </g>
     </g>
     <g id="text_26">
      <!-- 0.60 -->
      <g style="fill: #ff0000" transform="translate(421.72 60.973068) scale(0.1 -0.1)">
       <use xlink:href="#LatinModernMath-Regular-30"/>
       <use xlink:href="#LatinModernMath-Regular-2e" x="49.999985"/>
       <use xlink:href="#LatinModernMath-Regular-36" x="77.799973"/>
       <use xlink:href="#LatinModernMath-Regular-30" x="127.799957"/>
      </g>
     </g>
    </g>
   </g>
   <g id="line2d_28">
    <path d="M 73.832727 88.934066 
L 90.065455 53.568 
L 106.298182 54.348505 
L 122.530909 95.352574 
L 138.763636 84.151526 
L 154.996364 111.436579 
L 171.229091 123.979816 
L 187.461818 98.547199 
L 203.694545 114.267386 
L 219.927273 82.721645 
L 236.16 54.268275 
L 252.392727 126.924324 
L 268.625455 118.874198 
L 284.858182 106.310451 
L 301.090909 171.155542 
L 317.323636 234.177425 
L 333.556364 232.66986 
L 349.789091 251.319621 
L 366.021818 265.587539 
L 382.254545 295.488 
L 398.487273 244.127572 
" clip-path="url(#p433fd51d45)" style="fill: none; stroke: #ff0000; stroke-width: 1.5; stroke-linecap: square"/>
   </g>
   <g id="patch_8">
    <path d="M 57.6 307.584 
L 57.6 41.472 
" style="fill: none; stroke: #000000; stroke-width: 0.8; stroke-linejoin: miter; stroke-linecap: square"/>
   </g>
   <g id="patch_9">
    <path d="M 414.72 307.584 
L 414.72 41.472 
" style="fill: none; stroke: #000000; stroke-width: 0.8; stroke-linejoin: miter; stroke-linecap: square"/>
   </g>
   <g id="patch_10">
    <path d="M 57.6 307.584 
L 414.72 307.584 
" style="fill: none; stroke: #000000; stroke-width: 0.8; stroke-linejoin: miter; stroke-linecap: square"/>
   </g>
   <g id="patch_11">
    <path d="M 57.6 41.472 
L 414.72 41.472 
" style="fill: none; stroke: #000000; stroke-width: 0.8; stroke-linejoin: miter; stroke-linecap: square"/>
   </g>
  </g>
  <g id="text_27">
   <!-- Embedding for label 9 -->
   <g transform="translate(172.141875 15.372) scale(0.12 -0.12)">
    <defs>
     <path id="LatinModernMath-Regular-45" d="M 4173 1651 
L 3904 0 
L 211 0 
L 211 198 
L 365 198 
Q 710 198 790 256 
Q 870 314 870 499 
L 870 3853 
Q 870 4038 790 4096 
Q 710 4154 365 4154 
L 211 4154 
L 211 4352 
L 3814 4352 
L 3994 2912 
L 3834 2912 
Q 3789 3277 3731 3488 
Q 3674 3699 3536 3862 
Q 3398 4026 3171 4090 
Q 2944 4154 2579 4154 
L 1754 4154 
Q 1536 4154 1488 4109 
Q 1440 4064 1440 3898 
L 1440 2362 
L 2016 2362 
Q 2458 2362 2582 2515 
Q 2707 2669 2707 3110 
L 2867 3110 
L 2867 1414 
L 2707 1414 
Q 2707 1850 2582 2006 
Q 2458 2163 2016 2163 
L 1440 2163 
L 1440 454 
Q 1440 288 1488 243 
Q 1536 198 1754 198 
L 2605 198 
Q 2880 198 3081 233 
Q 3283 269 3424 358 
Q 3565 448 3661 550 
Q 3757 653 3824 838 
Q 3891 1024 3929 1197 
Q 3968 1370 4013 1651 
L 4173 1651 
z
" transform="scale(0.015625)"/>
     <path id="LatinModernMath-Regular-6d" d="M 5203 0 
L 4486 19 
L 3763 0 
L 3763 198 
Q 4102 198 4182 240 
Q 4262 282 4262 486 
L 4262 1978 
Q 4262 2304 4163 2496 
Q 4064 2688 3789 2688 
Q 3456 2688 3190 2409 
Q 2925 2131 2925 1664 
L 2925 486 
Q 2925 282 3005 240 
Q 3085 198 3424 198 
L 3424 0 
L 2707 19 
L 1984 0 
L 1984 198 
Q 2323 198 2403 240 
Q 2483 282 2483 486 
L 2483 1978 
Q 2483 2304 2384 2496 
Q 2285 2688 2010 2688 
Q 1677 2688 1411 2409 
Q 1146 2131 1146 1664 
L 1146 486 
Q 1146 282 1226 240 
Q 1306 198 1645 198 
L 1645 0 
L 928 19 
L 205 0 
L 205 198 
Q 544 198 624 240 
Q 704 282 704 486 
L 704 2202 
Q 704 2438 621 2499 
Q 538 2560 205 2560 
L 205 2758 
L 1107 2829 
L 1107 2157 
Q 1408 2829 2054 2829 
Q 2803 2829 2906 2202 
Q 3014 2445 3244 2637 
Q 3475 2829 3834 2829 
Q 4314 2829 4506 2592 
Q 4646 2432 4675 2253 
Q 4704 2074 4704 1613 
L 4704 390 
Q 4710 256 4812 227 
Q 4915 198 5203 198 
L 5203 0 
z
" transform="scale(0.015625)"/>
     <path id="LatinModernMath-Regular-62" d="M 3334 1382 
Q 3334 774 2912 352 
Q 2490 -70 1907 -70 
Q 1376 -70 1069 397 
L 838 0 
L 678 0 
L 678 3814 
Q 678 4051 595 4112 
Q 512 4173 179 4173 
L 179 4371 
L 1101 4442 
L 1101 2413 
Q 1472 2829 1978 2829 
Q 2528 2829 2931 2406 
Q 3334 1984 3334 1382 
z
M 2803 1389 
Q 2803 1984 2618 2278 
Q 2362 2688 1946 2688 
Q 1478 2688 1190 2278 
Q 1120 2176 1120 2048 
L 1120 730 
Q 1120 595 1210 461 
Q 1466 70 1882 70 
Q 2330 70 2605 480 
Q 2803 787 2803 1389 
z
" transform="scale(0.015625)"/>
     <path id="LatinModernMath-Regular-66" d="M 2285 4064 
Q 2285 3942 2211 3862 
Q 2138 3782 2003 3782 
Q 1875 3782 1801 3862 
Q 1728 3942 1728 4058 
Q 1728 4262 1920 4326 
Q 1824 4371 1709 4371 
Q 1478 4371 1299 4134 
Q 1120 3898 1120 3501 
L 1120 2758 
L 1869 2758 
L 1869 2560 
L 1139 2560 
L 1139 499 
Q 1139 314 1216 256 
Q 1293 198 1626 198 
L 1760 198 
L 1760 0 
Q 1504 19 947 19 
L 218 0 
L 218 198 
Q 557 198 637 240 
Q 717 282 717 486 
L 717 2560 
L 211 2560 
L 211 2758 
L 717 2758 
L 717 3494 
Q 717 3968 1024 4240 
Q 1331 4512 1709 4512 
Q 1958 4512 2121 4377 
Q 2285 4243 2285 4064 
z
" transform="scale(0.015625)"/>
     <path id="LatinModernMath-Regular-39" d="M 2925 2106 
Q 2925 1114 2445 486 
Q 1965 -141 1318 -141 
Q 909 -141 669 44 
Q 429 230 429 550 
Q 429 717 521 787 
Q 614 858 723 858 
Q 838 858 928 781 
Q 1018 704 1018 563 
Q 1018 448 944 358 
Q 870 269 685 269 
Q 870 38 1312 38 
Q 1472 38 1632 112 
Q 1792 186 1965 365 
Q 2138 544 2243 921 
Q 2349 1299 2349 1830 
L 2349 2035 
Q 2093 1395 1549 1395 
Q 1011 1395 640 1808 
Q 269 2221 269 2822 
Q 269 3162 368 3395 
Q 467 3629 678 3859 
Q 1062 4262 1619 4262 
Q 1856 4262 2067 4163 
Q 2278 4064 2480 3837 
Q 2682 3610 2803 3165 
Q 2925 2720 2925 2106 
z
M 2336 2694 
Q 2336 3322 2234 3597 
Q 2042 4102 1619 4102 
Q 1197 4102 979 3699 
Q 845 3462 845 2816 
Q 845 2182 960 1946 
Q 1158 1542 1555 1542 
Q 1946 1542 2141 1891 
Q 2336 2240 2336 2694 
z
" transform="scale(0.015625)"/>
    </defs>
    <use xlink:href="#LatinModernMath-Regular-45"/>
    <use xlink:href="#LatinModernMath-Regular-6d" x="68.099991"/>
    <use xlink:href="#LatinModernMath-Regular-62" x="151.399979"/>
    <use xlink:href="#LatinModernMath-Regular-65" x="206.999969"/>
    <use xlink:href="#LatinModernMath-Regular-64" x="251.399963"/>
    <use xlink:href="#LatinModernMath-Regular-64" x="306.999954"/>
    <use xlink:href="#LatinModernMath-Regular-69" x="362.599945"/>
    <use xlink:href="#LatinModernMath-Regular-6e" x="390.399933"/>
    <use xlink:href="#LatinModernMath-Regular-67" x="445.999924"/>
    <use xlink:href="#LatinModernMath-Regular-20" x="495.999908"/>
    <use xlink:href="#LatinModernMath-Regular-66" x="529.199905"/>
    <use xlink:href="#LatinModernMath-Regular-6f" x="559.799896"/>
    <use xlink:href="#LatinModernMath-Regular-72" x="609.799881"/>
    <use xlink:href="#LatinModernMath-Regular-20" x="648.999878"/>
    <use xlink:href="#LatinModernMath-Regular-6c" x="682.199875"/>
    <use xlink:href="#LatinModernMath-Regular-61" x="709.999863"/>
    <use xlink:href="#LatinModernMath-Regular-62" x="759.999847"/>
    <use xlink:href="#LatinModernMath-Regular-65" x="815.599838"/>
    <use xlink:href="#LatinModernMath-Regular-6c" x="859.999832"/>
    <use xlink:href="#LatinModernMath-Regular-20" x="887.79982"/>
    <use xlink:href="#LatinModernMath-Regular-39" x="920.999817"/>
   </g>
  </g>
 </g>
 <defs>
  <clipPath id="p433fd51d45">
   <rect x="57.6" y="41.472" width="357.12" height="266.112"/>
  </clipPath>
 </defs>
</svg>
